# xmcd
#
# Track frame offsets:
#	150
#	29547
#	53644
#	76459
#	100291
#	122476
#	151407
#	172493
#	191332
#	214674
#
# Disc length: 3125 seconds
#
# Revision: 2
# Processed by: cddbd v1.5.2PL0 Copyright (c) Steve Scherf et al.
# Submitted via: EZCDAudioConverter 8.0.2.1
#
DISCID=840c330a
DTITLE=Họa Mi - Vol 01. Một Thời Yêu Nhau
DYEAR=2009
DGENRE=
TTITLE0=Mắt lệ cho người
TTITLE1=Bản tình cuối
TTITLE2=Đường xưa
TTITLE3=Còn gì nữa đâu
TTITLE4=Một mình
TTITLE5=Riêng một góc trời
TTITLE6=Kiếp nào có yêu nhau
TTITLE7=Bên em là biển rộng
TTITLE8=Ru ta ngậm ngùi
TTITLE9=Tình
EXTD=
EXTT0=
EXTT1=
EXTT2=
EXTT3=
EXTT4=
EXTT5=
EXTT6=
EXTT7=
EXTT8=
EXTT9=
PLAYORDER=
